<svg width="60" height="60" fill="none" xmlns="http://www.w3.org/2000/svg"><path d="M27.18 59.94c-.018-.03-.37-.062-.783-.072a14.082 14.082 0 0 1-1.622-.163c-4.205-.7-8.455-2.225-11.286-4.05-.523-.337-.643-.467-.557-.606.063-.1.27-.05 1.482.367.58.199 1.48.454 2 .566.88.19 1.059.205 2.58.205 2.285 0 3.067-.13 5.554-.918 4.739-1.502 5.924-1.509 10.631-.06 2.704.832 3.767 1.016 5.871 1.016 1.532 0 2.97-.27 4.7-.882.46-.162.923-.311 1.028-.331.206-.038.306.048.243.211-.096.249-2.513 1.599-3.997 2.232-2.894 1.234-7.381 2.377-9.452 2.407-.42.007-.783.041-.806.078-.049.08-5.536.08-5.585 0Zm-10.84-5.867c-3.766-.556-7.032-2.26-9.816-5.121-1.517-1.56-2.637-3.175-3.767-5.433C1.28 40.565.227 36.754.046 33.706c-.062-1.04-.06-6.82.001-7.809.127-2.014.863-4.971 1.876-7.535.389-.983 1.42-3.128 1.913-3.979l.358-.617c.994-1.726 2.903-4.146 4.59-5.817a28.699 28.699 0 0 1 4.758-3.844c.54-.35 1.063-.693 1.163-.761.37-.252 2.608-1.385 3.426-1.735C19.944.835 22.015.157 22.633.135c.201-.007.383-.04.404-.074.02-.034.209-.061.418-.061.321 0 .382.021.39.138.009.113-.105.174-.62.334-2.157.666-4.633 1.845-7.02 3.342-1.795 1.124-3.898 2.883-5.637 4.714-4.455 4.689-7.048 10.329-7.836 17.05-.154 1.31-.175 4.786-.035 6.021.853 7.582 4.13 13.59 8.99 16.483 1.815 1.08 3.808 1.651 6.035 1.73 1.805.063 2.96-.174 6.225-1.277 3.07-1.038 3.901-1.258 5.246-1.385.897-.085 1.96-.008 3.001.217.62.135 3.206.94 4.613 1.439 2.165.766 3.77 1.064 5.417 1.006 2.7-.095 5.062-.917 7.21-2.508 4.212-3.12 7.056-8.837 7.814-15.705.123-1.118.124-4.515.002-5.666-.541-5.078-2.04-9.384-4.637-13.33-2.55-3.871-6.162-7.276-10.17-9.586C40.8 2.071 38.31.964 36.716.471c-.505-.157-.636-.226-.636-.334 0-.116.055-.137.359-.137.197 0 .376.027.396.06.02.033.223.068.45.077 1.018.041 4.266 1.248 6.477 2.408 7.066 3.705 12.231 9.76 14.835 17.39.678 1.987 1.238 4.55 1.261 5.78.008.381.05.738.096.795.064.082.06.092-.016.046-.08-.048-.083-.03-.016.095.101.189.063 5.526-.053 7.31-.086 1.337-.32 2.674-.777 4.43-1.526 5.875-4.689 10.555-8.98 13.286-1.53.972-3.78 1.883-5.532 2.237-.734.149-1.038.168-2.611.168-2.374 0-3.525-.196-6.762-1.15-3.403-1.002-3.846-1.095-5.235-1.095-1.389 0-1.833.093-5.235 1.096-3.122.92-4.214 1.114-6.47 1.147-.94.014-1.807.011-1.927-.007Zm.255-6.707c-1.455-.159-2.633-.51-4.035-1.2-1.896-.936-3.493-2.402-4.869-4.47-.65-.977-1.222-2.021-1.174-2.146.078-.204.355-.103.77.281.909.84 2.992 2.374 3.225 2.374.04 0 .125.047.188.103.156.14 1.37.668 2.042.889 1.348.443 3.088.647 4.544.532 1.708-.134 2.925-.422 4.835-1.142 3.01-1.136 4.617-1.532 6.857-1.69 1.668-.12 3.625.07 5.394.519.855.217 1.804.528 3.235 1.06 1.55.575 2.413.834 3.425 1.029 3.392.65 6.51.051 9.299-1.788.845-.557 2.061-1.516 2.505-1.975.296-.307.59-.39.667-.19.075.195-1.011 2.026-1.854 3.125-.464.606-1.474 1.645-2.082 2.142-1.468 1.201-3.355 2.07-5.307 2.443-.903.172-3.068.174-4.072.003-1.113-.19-2.279-.521-3.599-1.023-2.929-1.114-4.407-1.437-6.58-1.44-.934 0-1.454.037-2.13.154-1.613.278-2.25.468-5.008 1.492a16.058 16.058 0 0 1-3.005.804c-.834.137-2.523.196-3.27.114Z" fill="#fff"/><path d="m24.92 35.508-7.488-17.885c-.531-1.232-1.063-2.085-1.594-2.56A3.315 3.315 0 0 0 14 14.221v-.648c.092 0 .324-.011.693-.033.347-.021.601-.032.763-.032.81 0 1.641.086 2.496.259.855.151 1.664.518 2.427 1.102.763.583 1.41 1.5 1.942 2.754L27 28.8l3.12-8.295-1.213-2.883c-.532-1.232-1.11-2.085-1.734-2.56-.6-.475-1.248-.756-1.941-.842v-.648c.092 0 .3-.011.624-.033.324-.021.566-.032.728-.032.809 0 1.641.086 2.496.259.855.173 1.664.55 2.427 1.134.763.562 1.41 1.469 1.942 2.722l4.957 11.793 5.929-15.584H46l-8.217 21.676h-1.386l-5.34-12.701-4.75 12.7h-1.386Z" fill="#fff"/></svg>